<?xml version="1.0" encoding="UTF-8" standalone="no"?>
<!-- Created with Inkscape (http://www.inkscape.org/) -->

<svg
   width="81.772125mm"
   height="109.85938mm"
   viewBox="0 0 81.772125 109.85938"
   version="1.1"
   id="svg5"
   xml:space="preserve"
   inkscape:version="1.2.1 (ef4d3fba62, 2022-07-19, custom)"
   xmlns:inkscape="http://www.inkscape.org/namespaces/inkscape"
   xmlns:sodipodi="http://sodipodi.sourceforge.net/DTD/sodipodi-0.dtd"
   xmlns="http://www.w3.org/2000/svg"
   xmlns:svg="http://www.w3.org/2000/svg"><sodipodi:namedview
     id="namedview7"
     pagecolor="#ffffff"
     bordercolor="#666666"
     borderopacity="1.0"
     inkscape:showpageshadow="2"
     inkscape:pageopacity="0.0"
     inkscape:pagecheckerboard="0"
     inkscape:deskcolor="#d1d1d1"
     inkscape:document-units="mm"
     showgrid="false"
     inkscape:zoom="0.2102413"
     inkscape:cx="499.42613"
     inkscape:cy="187.87935"
     inkscape:window-width="1866"
     inkscape:window-height="1016"
     inkscape:window-x="54"
     inkscape:window-y="27"
     inkscape:window-maximized="1"
     inkscape:current-layer="layer1" /><defs
     id="defs2" /><g
     inkscape:label="Warstwa 1"
     inkscape:groupmode="layer"
     id="layer1"
     transform="translate(28.301314,-99.862685)"><g
       id="g108"
       transform="matrix(0.26458333,0,0,0.26458333,-118.16175,77.102312)"><g
         id="g37">
	<g
   class="st0"
   id="g35">
		<path
   class="st1"
   d="m 33.92,351.41 h 8.12 v 1.53 h -8.12 z m 3.25,0.94 h 1.61 v 10.56 h -1.61 z"
   id="path27" />
		<path
   class="st1"
   d="m 57.88,351.41 h 1.61 v 11.5 h -1.61 z m 0.79,0 h 6.6 v 1.53 h -6.6 z m 0,5.02 h 5.73 v 1.54 h -5.73 z m 0,4.94 h 6.6 v 1.53 h -6.6 z"
   id="path29" />
		<path
   class="st1"
   d="m 85.28,351.41 h 1.38 l 4.24,11.5 h -1.74 l -3.19,-9.28 -3.19,9.28 h -1.74 z m -2.29,7.44 h 6.05 v 1.53 h -6.05 z"
   id="path31" />
		<path
   class="st1"
   d="m 115.48,351.41 h 1.51 v 11.5 h -1.57 v -8.61 l 0.08,0.51 -2.83,6.51 h -1.12 l -2.83,-6.35 0.08,-0.67 v 8.61 h -1.57 v -11.5 h 1.51 l 3.38,7.59 z"
   id="path33" />
	</g>
</g><g
         id="g75">
	<g
   id="g57">
		<path
   class="st2"
   d="m 644.55,424.8 c -0.21,-0.91 -0.5,-1.46 -1.16,-1.63 v -0.09 c 0.79,-0.25 1.39,-0.77 1.39,-1.63 0,-0.65 -0.31,-1.12 -0.7,-1.43 -0.43,-0.3 -0.93,-0.47 -2.1,-0.51 -0.1,0 -0.13,0 -0.23,0 -0.43,0 -0.86,0.04 -1.25,0.04 -0.51,0.05 -0.95,0.13 -1.32,0.17 v 6.72 h 1.32 0.26 v -2.67 h 0.74 c 0.16,0 0.34,0 0.47,0.04 0.55,0.08 0.82,0.38 0.9,0.99 0.21,0.82 0.34,1.37 0.5,1.64 h 1.69 c -0.12,-0.27 -0.28,-0.65 -0.51,-1.64 z m -2.56,-2.19 c -0.13,0.04 -0.26,0.04 -0.45,0.04 h -0.71 v -1.94 c 0.13,-0.04 0.42,-0.08 0.85,-0.08 0.13,0 0.21,0 0.32,0 0.71,0.08 1.11,0.47 1.11,1.03 -0.02,0.55 -0.49,0.86 -1.12,0.95 z"
   id="path39" />
		<path
   class="st2"
   d="m 641.99,416.2 c -0.05,0 -0.1,0 -0.13,0 h -0.05 c -0.43,0 -0.85,0.04 -1.29,0.13 -3.22,0.56 -5.62,3.27 -5.62,6.62 0,3.31 2.4,6.02 5.62,6.62 0.45,0.08 0.87,0.12 1.29,0.12 0.05,0 0.13,0 0.18,0 3.78,-0.08 6.7,-3.05 6.7,-6.74 0,-3.74 -2.93,-6.71 -6.7,-6.75 z m 0,12.13 c -0.05,0 -0.1,0 -0.13,0 -0.48,0 -0.9,-0.04 -1.34,-0.17 -2.27,-0.61 -3.91,-2.71 -3.91,-5.2 0,-2.49 1.64,-4.64 3.91,-5.21 0.39,-0.12 0.82,-0.17 1.25,-0.17 h 0.04 c 0.05,0 0.13,0 0.18,0 2.88,0.09 4.99,2.45 4.99,5.42 -0.01,2.87 -2.12,5.29 -4.99,5.33 z"
   id="path41" />
		<polygon
   class="st2"
   points="403.32,437.27 405.61,437.27 417.74,437.27 417.74,434.69 457.39,434.69 457.39,423.08 417.74,423.08 405.61,423.08 403.32,423.08 403.32,434.69 "
   id="polygon43" />
		<polygon
   class="st2"
   points="403.32,449.48 403.32,461.05 405.61,461.05 417.74,461.05 457.39,461.05 457.39,449.48 417.74,449.48 417.74,448.32 405.61,448.32 403.32,448.32 "
   id="polygon45" />
		<path
   class="st2"
   d="m 511.09,445.88 c 2.29,0.12 4.43,-2.2 4.41,-6.38 v -6.57 c 0,-6.2 -5.25,-9.85 -12.35,-9.85 h -1.24 -2.92 -23.61 -3.53 -8.94 v 11.61 26.4 h 8.94 3.53 V 450.7 h 23.61 0.29 c 1.9,0.52 2.79,1.68 2.64,3.52 v 6.87 h 13.81 v -7.86 c -0.07,-4.78 -1.52,-7.18 -4.64,-7.35 z m -10.82,-5.81 h -1.29 -23.61 v -5.73 h 23.61 1.29 c 3.27,-0.04 3.75,5.77 0,5.73 z"
   id="path47" />
		<path
   class="st2"
   d="m 577,434.69 c -2.46,-7.39 -8.8,-11.61 -18.85,-11.61 h -0.87 -26.32 -9.5 v 38.01 h 9.5 26.32 1.26 c 10.61,-0.3 16.26,-4.72 18.45,-11.17 0.82,-2.28 1.16,-4.82 1.16,-7.52 0.01,-2.85 -0.38,-5.43 -1.15,-7.71 z m -19.72,14.75 c -0.34,0.04 -0.69,0.09 -1.03,0.09 h -21.83 v -14.8 h 21.62 c 0.43,0 0.88,0.04 1.24,0.08 9.77,1.13 10.24,13.39 0,14.63 z"
   id="path49" />
		<path
   class="st2"
   d="m 640.51,459.16 -24.55,-36.09 h -3.27 -2.83 -3.02 -3.23 l -0.34,0.52 -26.27,35.92 -1.16,1.58 h 1.16 15.39 l 3.49,-4.72 h 7.39 6.59 12.07 l 3.27,4.72 h 15.31 1.29 z m -30.66,-13.28 h -5.98 l 5.86,-8.95 0.13,0.17 5.97,8.77 h -5.98 z"
   id="path51" />
		<path
   class="st2"
   d="M 398.08,439.5 H 384.7 366.73 v 6.72 h 16.47 c -0.34,1.76 -1.75,2.92 -4,2.92 h -20.64 c -3.57,0 -5.67,-2.92 -5.67,-6.45 v -1.55 c 0,-3.56 2.1,-6.45 5.67,-6.45 h 20.64 c 2.11,0 3.75,0.99 4.65,2.59 h 13.9 c -1.81,-8.13 -9.08,-14.24 -17.69,-14.24 H 357.7 c -6.07,0 -11.44,3.01 -14.72,7.65 -2.1,2.97 -3.35,6.58 -3.35,10.45 v 1.55 c 0,3.88 1.25,7.44 3.35,10.41 3.27,4.61 8.65,7.65 14.72,7.65 h 22.36 c 8.74,0 16.05,-6.28 17.72,-14.53 0,0 0.59,-2.09 0.3,-6.72 z"
   id="path53" />
		<polygon
   class="st2"
   points="434.68,446.22 434.68,439.5 405.61,439.5 403.32,439.5 403.32,446.22 405.61,446.22 "
   id="polygon55" />
	</g>
	<g
   id="g61">
		<path
   class="st2"
   d="m 614.54,236.35 c -4.51,4.6 -9.01,9.21 -13.55,13.78 -3.61,3.63 -5.69,3.61 -9.21,-0.02 -1.16,-1.2 -2.27,-2.46 -3.41,-3.7 -9.43,9.39 -18.62,18.53 -27.98,27.85 6.16,5.79 8.23,12.63 4.28,20.36 -3.95,7.73 -11.01,8.87 -18.84,7.63 -3.12,9.07 -9.62,12.52 -18.79,11.73 -1.38,6.05 -4.9,10.2 -10.72,12.09 -1.91,0.62 -4.06,0.59 -6.1,0.66 -1.42,0.05 -2.2,0.23 -2.76,1.87 -4.09,12.11 -17.95,15.05 -26.92,5.86 -3.74,-3.83 -7.62,-7.52 -11.71,-11.53 -1.25,1.22 -2.58,2.48 -3.85,3.79 -5.64,5.78 -15.93,5.91 -21.19,-0.13 -2.51,-2.89 -4.84,-5.69 -5.7,-9.53 -0.16,-0.69 -1.12,-1.49 -1.87,-1.72 -7.19,-2.17 -11.99,-6.59 -13.9,-14.01 -0.2,-0.77 -1.22,-1.65 -2.04,-1.89 -7.24,-2.15 -12,-6.76 -13.81,-14.08 -0.44,-1.77 -1.37,-1.75 -2.64,-2.07 -6.39,-1.6 -10.69,-5.9 -12.7,-11.84 -1.9,-5.6 -0.41,-10.94 4.21,-15.06 1.17,-1.05 2.33,-2.12 3.41,-3.11 -2.22,-2.14 -4.19,-4.05 -6.9,-6.66 -1.05,1.25 -2.31,2.71 -3.73,4.17 -2.85,2.93 -5.36,3 -8.2,0.19 -7.48,-7.39 -14.76,-14.59 -22.05,-22.16 -1.13,-1.18 -1.78,-3.31 -1.79,-5.01 -0.18,-17.36 -0.13,-34.72 -0.29,-52.08 -0.03,-3.13 1.02,-5.16 3.71,-6.8 26.81,-16.32 53.59,-32.7 80.35,-49.1 15.12,-9.27 30.24,-18.55 45.25,-27.98 3.69,-2.32 6.59,-2.52 10.53,-0.08 34.26,21.24 68.67,42.22 103.04,63.3 7.68,4.71 15.31,9.52 23.03,14.17 2.31,1.39 3.24,3.15 3.21,5.84 -0.11,9.42 -0.02,18.85 -0.06,28.28 -0.01,3.19 -1.29,4.73 -3.91,4.97 -3.19,0.29 -4.96,-1.44 -4.99,-5.1 -0.05,-7.94 -0.11,-15.88 0.04,-23.81 0.04,-2.27 -0.66,-3.49 -2.62,-4.69 -28.13,-17.21 -56.2,-34.53 -84.3,-51.79 -12.07,-7.42 -24.21,-14.71 -36.23,-22.2 -1.94,-1.21 -3.24,-0.98 -5.03,0.12 -26.4,16.26 -52.85,32.46 -79.28,48.68 -13.84,8.5 -27.65,17.05 -41.53,25.49 -1.67,1.02 -2.24,2.1 -2.23,4.03 0.08,15.28 0.02,30.56 0.08,45.84 0,1.07 0.37,2.42 1.08,3.16 5.9,6.15 11.92,12.19 17.95,18.32 18.67,-18.71 37.08,-37.17 55.88,-56.01 -2.91,-2.81 -5.89,-5.66 -8.83,-8.55 -4.74,-4.66 -9.45,-9.35 -14.18,-14.01 -2.51,-2.48 -2.88,-5.33 -0.91,-7.3 1.88,-1.88 4.62,-1.71 7.08,0.72 8.61,8.49 17.19,17.03 25.71,25.61 2.69,2.7 2.67,5.06 0.04,7.76 -1.52,1.55 -3.25,2.89 -4.84,4.28 3.35,4.43 6.74,6.39 12.17,6.69 7.83,0.43 13.65,-1.78 18.06,-7.99 4.62,-6.49 10.66,-8.81 18.65,-8.07 7.58,0.69 15.27,0.03 22.9,0.24 1.69,0.05 3.71,0.85 4.94,2 3.97,3.72 7.65,7.76 11.62,11.88 1.74,-1.63 3.14,-2.95 4.52,-4.25 -1.77,-1.89 -3.45,-3.67 -5.11,-5.48 -2.21,-2.4 -2.38,-4.76 -0.08,-7.08 8.65,-8.74 17.36,-17.41 26.13,-26.04 2.1,-2.06 4.95,-2.03 6.65,-0.26 1.81,1.89 1.65,4.61 -0.58,6.87 -7.51,7.62 -15.07,15.2 -22.5,22.68 18.35,18.35 36.76,36.76 55.45,55.44 3.04,-3 6.4,-6.3 9.75,-9.62 3.31,-3.28 6.58,-6.61 9.92,-9.86 1.59,-1.55 3.3,-2.89 5.77,-1.85 2.44,1.02 2.85,3.04 2.79,5.37 -0.43,15.81 -2.6,31.31 -6.87,46.59 -4.21,15.07 -10.13,29.34 -17.9,42.86 -10.86,18.91 -24.8,35.23 -41.41,49.41 -15.47,13.21 -33.23,22.52 -51.26,31.47 -4.52,2.24 -9.03,4.51 -13.51,6.84 -2.03,1.05 -3.83,1.59 -6.19,0.5 -17.76,-8.75 -34.73,-16.49 -50.65,-27.39 -22.15,-15.17 -40.31,-34.14 -54.21,-57.17 -8.23,-13.63 -14.71,-28.02 -19.16,-43.3 -1.21,-4.17 -2.28,-8.38 -3.29,-12.6 -0.82,-3.44 0.36,-5.73 3.05,-6.31 2.96,-0.64 5,0.8 5.78,4.42 2.92,13.53 7.5,26.49 13.59,38.88 15.93,32.4 39.51,57.78 70.87,75.67 11.42,6.52 23.36,12.11 35.11,18.04 0.8,0.4 2.17,0.41 2.97,0 14.47,-7.56 29.39,-14.42 43.22,-23.03 24.23,-15.07 43.17,-35.55 57.45,-60.34 11.25,-19.53 18.13,-40.52 21.75,-62.66 0.58,-3.54 0.8,-7.15 1.19,-10.72 0.13,-1.42 -0.01,-1.28 -0.87,-0.36 z m -139.11,80.47 c 3.84,3.7 7.84,7.52 11.81,11.38 3.3,3.2 6.98,3.42 9.96,0.53 2.89,-2.8 2.7,-6.66 -0.54,-9.93 -3.14,-3.17 -6.36,-6.27 -9.44,-9.49 -1.83,-1.92 -1.88,-4.51 -0.37,-6.2 1.64,-1.84 4.26,-2.04 6.44,-0.45 0.64,0.46 1.18,1.06 1.74,1.62 3.58,3.58 7.13,7.18 10.73,10.73 3.48,3.44 7.55,3.75 10.5,0.85 2.88,-2.83 2.55,-6.63 -0.91,-10.14 -2.51,-2.55 -5.04,-5.06 -7.56,-7.59 -1.54,-1.55 -3.13,-3.05 -4.6,-4.66 -2.02,-2.23 -2.02,-4.79 -0.12,-6.62 1.75,-1.69 4.33,-1.63 6.41,0.21 0.81,0.72 1.53,1.55 2.3,2.32 4.64,4.6 9.27,9.22 13.95,13.79 2.04,1.99 4.55,2.48 7.15,1.43 2.44,-0.99 4.57,-2.94 4.44,-6 -0.09,-2.17 -1.71,-4.15 -3.18,-5.75 -4.63,-5.03 -9.73,-9.64 -14.38,-14.65 -1.18,-1.27 -2.12,-3.59 -1.84,-5.2 0.65,-3.75 4.89,-4.43 7.87,-1.46 6.61,6.57 13.18,13.2 19.78,19.78 3.34,3.33 7.32,3.5 10.24,0.49 2.66,-2.74 2.34,-6.92 -0.79,-10.06 -15.39,-15.46 -30.82,-30.89 -46.17,-46.39 -5.01,-5.06 -9.86,-10.28 -15.36,-16.02 -3.64,3.93 -6.55,7.47 -9.87,10.57 -11.02,10.26 -28.16,10.32 -38.48,0.31 -2.57,-2.5 -2.69,-4.89 -0.23,-7.49 2.18,-2.3 4.5,-4.48 6.73,-6.74 1.61,-1.63 4.65,-4.28 6.23,-6.07 -0.02,-0.33 -0.49,-0.23 -1.54,0.14 -8.83,2.85 -13.8,-2.56 -18.43,-8.22 -12.95,13 -25.61,25.71 -38.13,38.28 1.78,1.89 3.71,3.94 6.08,6.46 1.5,-1.74 2.63,-3.65 4.28,-4.82 2.2,-1.56 4.68,-2.99 7.26,-3.69 8.28,-2.24 17.22,6.73 18.51,13.27 0.36,1.85 0.97,2.54 2.9,2.84 5.62,0.86 12.05,7.47 12.79,13.08 0.23,1.77 0.99,2.1 2.52,2.55 6.95,2.03 11.62,6.44 13.67,13.54 0.27,0.93 1.42,2 2.37,2.27 6.54,1.86 10.88,6.16 12.99,12.37 1.12,3.3 1.24,7.08 -1.05,10.25 -1.99,2.78 -4.19,5.43 -6.66,8.58 z m 105.59,-76.56 c -12.74,-12.76 -25.4,-25.44 -38.56,-38.62 -2,2.21 -4,4.53 -6.12,6.75 -2.61,2.73 -4.92,2.68 -7.61,0.01 -4.14,-4.12 -8.23,-8.3 -12.5,-12.28 -0.96,-0.89 -2.57,-1.49 -3.89,-1.51 -8.03,-0.14 -16.06,-0.15 -24.09,0.02 -1.38,0.03 -3.01,0.81 -4.05,1.76 -3.36,3.07 -6.5,6.4 -9.74,9.61 -6.61,6.55 -13.22,13.1 -19.87,19.69 6.49,4.77 16.46,3.74 22.61,-2.2 4.07,-3.92 7.99,-7.99 12,-11.98 3.21,-3.2 5.41,-3.19 8.57,-0.03 17.29,17.33 34.59,34.66 51.9,51.98 1.37,1.37 2.83,2.67 4.14,3.9 9.21,-9.19 18.19,-18.13 27.21,-27.1 z m -105.97,61.97 c 0.59,-3.87 -2.46,-6.89 -5.76,-7.78 -2.77,-0.74 -4.55,0.64 -6.17,2.21 -4.27,4.14 -8.43,8.38 -12.62,12.6 -4.7,4.74 -4.68,6.69 0.05,11.27 2.52,2.43 4.99,2.54 7.5,0.08 5.03,-4.92 10.01,-9.89 14.91,-14.93 0.98,-1 1.92,-2.29 2.09,-3.45 z m -67.83,-27.54 c 0.99,0.12 2.55,-1.06 3.67,-2.14 4.84,-4.67 9.55,-9.47 14.26,-14.27 3.1,-3.16 2.91,-5.17 -0.67,-8.79 -3.65,-3.69 -5.41,-3.88 -8.7,-0.67 -4.75,4.62 -9.41,9.32 -14.12,13.98 -1.8,1.78 -3.09,3.81 -1.77,6.33 1.38,2.67 3.33,4.87 7.33,5.56 z m 43.8,3.63 c -1.28,0.18 -2.6,1.44 -3.75,2.55 -4.7,4.55 -9.31,9.2 -13.92,13.85 -2.91,2.94 -2.92,5.71 -0.13,8.5 3.83,3.84 6.41,4.12 9.63,0.93 4.65,-4.61 9.27,-9.24 13.84,-13.92 1.51,-1.54 3.05,-3.44 2.37,-6.22 -0.79,-3.25 -4.59,-6.18 -8.04,-5.69 z M 435.48,262.7 c -1.17,-0.08 -2.8,0.91 -3.87,1.96 -4.81,4.71 -9.52,9.52 -14.21,14.35 -3.2,3.29 -3.05,5.21 0.5,8.77 3.6,3.6 5.51,3.8 8.76,0.65 4.77,-4.62 9.44,-9.32 14.17,-13.98 1.72,-1.69 2.58,-3.39 1.89,-6.03 -0.89,-3.43 -3.76,-5.47 -7.24,-5.72 z"
   id="path59" />
	</g>
	<rect
   x="599.21997"
   y="483.54999"
   class="st2"
   width="41.860001"
   height="6.3000002"
   id="rect63" />
	<rect
   x="339.63"
   y="483.54999"
   class="st2"
   width="41.860001"
   height="6.3000002"
   id="rect65" />
	<path
   class="st2"
   d="m 406.62,479.46 h -8.59 v -6.99 h 25.19 v 6.99 h -8.63 v 21.78 h -7.97 z"
   id="path67" />
	<path
   class="st2"
   d="m 447.25,472.47 h 23.14 v 6.74 h -15.25 v 4.4 h 13.81 v 6.29 h -13.81 v 4.56 h 15.45 v 6.78 h -23.35 v -28.77 z"
   id="path69" />
	<path
   class="st2"
   d="m 506.83,472.26 h 7.68 l 12.25,28.98 h -8.55 l -2.05,-5.18 h -11.14 l -2.05,5.18 h -8.34 z m 6.98,17.59 -3.21,-8.14 -3.25,8.14 z"
   id="path71" />
	<path
   class="st2"
   d="m 550.79,472.47 h 8.43 l 6.86,11.14 6.86,-11.14 h 8.43 v 28.77 h -7.93 v -16.52 l -7.36,11.26 h -0.16 l -7.32,-11.22 v 16.48 h -7.81 z"
   id="path73" />
</g></g></g><style
     type="text/css"
     id="style25">
	.st0{display:none;}
	.st1{display:inline;fill:#FFFFFF;}
	.st2{fill:#003E70;}
</style></svg>
